# xmcd
#
# Track frame offsets: 
#        150
#        5157
#        32591
#        46099
#        64625
#        75267
#        97517
#        106751
#        130917
#        136369
#        158770
#        168903
#        197605
#        203692
#        229511
#        239179
#        262947
#        269879
#        293980
#        300617
#
# Disc length: 4330 seconds
#
# Revision: 0
# Processed by: cddbd v1.5.2PL0 Copyright (c) Steve Scherf et al.
# Submitted via: ExactAudioCopy v0.99pb4
#
DISCID=0410e814
DTITLE=Hank Williams - Mother's Best [CD10)
DYEAR=1951
DGENRE=Country
TTITLE0=Mother's Best
TTITLE1=Where The Old Red River Flows
TTITLE2=Orange Blossom Special
TTITLE3=Where He Leads Me I Will Follow
TTITLE4=Mother's Best
TTITLE5=If I Didn't Love You
TTITLE6=Panhandle Rag
TTITLE7=Wait For The Light To Shine
TTITLE8=Mother's Best
TTITLE9=I Just Don't like This Kind Of Livin'
TTITLE10=Tennessee Wagoner
TTITLE11=Pale Horse and His Rider
TTITLE12=Mother's Best
TTITLE13=Hey Good Lookin'
TTITLE14=Alabama Jubilee
TTITLE15=Searching For A Soldiers' Grave
TTITLE16=Mother's Best
TTITLE17=I've Been Down That Road Before
TTITLE18=Little Annie
TTITLE19=I've Got a One Way Ticket To The Sky
EXTD=
EXTT0=
EXTT1=
EXTT2=
EXTT3=
EXTT4=
EXTT5=
EXTT6=
EXTT7=
EXTT8=
EXTT9=
EXTT10=
EXTT11=
EXTT12=
EXTT13=
EXTT14=
EXTT15=
EXTT16=
EXTT17=
EXTT18=
EXTT19=
PLAYORDER=
